# xmcd CD database file
#
# Track frame offsets:
#	150
#	19012
#	38407
#	56549
#	76086
#	94610
#	113998
#	128512
#	145735
#	164332
#	186008
#	205331
#	225408
#	245282
#	267656
#	287981
#	309534
#
# Disc length: 4334 seconds
#
# Revision: 0
# Processed by: cddbd v1.5.1PL0 Copyright (c) Steve Scherf et al.
# Submitted via: CDex 1.51
#
DISCID=dd10ec11
DTITLE=Elvis Crespo and Eddy Herrera - Elvis Crespo and Eddy Herrera
DYEAR=2004
DGENRE=Merengue
TTITLE0=Hora Enamorada (Elvis Crespo)
TTITLE1=Si Tu Amor No Vuelve (Eddy Herrera)
TTITLE2=Bandida (Elvis Crespo)
TTITLE3=Culpable (Eddy Herrera)
TTITLE4=La Cerveza (Elvis Crespo)
TTITLE5=La Ultima Vez (Eddy Herrera)
TTITLE6=Wow Flash (Elvis Crespo)
TTITLE7=El Idiota (Eddy Herrera)
TTITLE8=Linda Eh (Elvis Crespo)
TTITLE9=Ajena (Eddy Herrera)
TTITLE10=Píntame (Elvis Crespo)
TTITLE11=Demasiado Niña (Eddy Herrera)
TTITLE12=Suavemente (Elvis Crespo)
TTITLE13=El Vicio (Eddy Herrera)
TTITLE14=Tu Sonrisa (Elvis Crespo)
TTITLE15=Carolina (Eddy Herrera)
TTITLE16=Nuestra Canción (Elvis Crespo)
EXTD=YEAR: 2004
EXTT0=
EXTT1=
EXTT2=
EXTT3=
EXTT4=
EXTT5=
EXTT6=
EXTT7=
EXTT8=
EXTT9=
EXTT10=
EXTT11=
EXTT12=
EXTT13=
EXTT14=
EXTT15=
EXTT16=
PLAYORDER=
